<svg width="283" height="285" viewBox="0 0 283 285" fill="none" xmlns="http://www.w3.org/2000/svg">
<path d="M196.331 130.263C268.964 264.63 4.8313 324.544 4.8313 247.305C4.8313 170.067 4.8313 149.5 4.8313 149.5C4.8313 149.5 4.8313 108.367 4.8313 37.5273C4.8313 -33.3127 123.699 -4.10481 196.331 130.263Z" fill="#FFB15F"/>
<path d="M13.9776 265.12C13.3949 270.363 11.4832 274.423 11.4832 280.086" stroke="#FFB15F" stroke-width="3" stroke-linecap="round"/>
<ellipse cx="168.397" cy="151.122" rx="50.1687" ry="170.199" transform="rotate(-38.0435 168.397 151.122)" fill="#FFB15F"/>
<path d="M138.911 163.641C67.695 -83.1874 352.031 283.471 266.343 285.369C180.655 287.266 11.6819 285.713 11.6819 285.713C11.6819 285.713 118.165 177.664 39.5759 179.404C-39.0137 181.144 210.126 410.47 138.911 163.641Z" fill="#FFB15F"/>
<rect x="6" y="239" width="252" height="46" fill="#FFB15F"/>
<path d="M8.98877 277.592C18.3967 271.947 24.5298 263.432 31.4384 255.142" stroke="#FFB15F" stroke-width="3" stroke-linecap="round"/>
</svg>
