<svg width="119" height="119" viewBox="0 0 119 119" fill="none" xmlns="http://www.w3.org/2000/svg">
<g clip-path="url(#clip0_79_15)">
<path fill-rule="evenodd" clip-rule="evenodd" d="M90.3155 28.061C74.963 12.5643 48.5199 13.8654 31.2578 30.9669C13.9957 48.0684 12.4474 74.4981 27.7999 89.9948C43.1523 105.491 69.5954 104.19 86.8575 87.0889C104.12 69.9874 105.668 43.5577 90.3155 28.061ZM81.9428 62.1273C76.5844 66.6018 62.7776 76.6567 56.3227 81.2121C53.5891 83.1417 52.036 83.1421 51.2191 82.4687C49.4377 81.0039 49.5797 78.4121 49.1673 75.6931C48.5234 71.4379 48.2631 68.9297 47.6494 64.7883C46.9385 60.0019 49.8352 60.6907 53.2249 60.4602C54.1142 60.3992 68.5016 60.3706 69.2996 59.8581C69.3992 59.7918 69.7251 59.506 69.7221 59.18C69.7191 58.854 69.4258 58.6673 69.2101 58.5382C68.902 58.3522 62.0894 57.2847 48.7701 55.3331C46.8034 55.062 45.3812 54.4601 44.5009 53.5298C43.5328 52.5057 42.2308 49.9776 41.3316 48.028C40.2274 45.6422 39.1807 43.9083 40.3795 42.9616C41.0047 42.4673 42.2684 42.5915 44.173 43.3365C56.2464 47.5835 64.269 50.4456 68.2384 51.9203C79.5701 56.1376 81.801 57.1339 82.869 58.1702C84.201 59.4731 83.2997 60.9962 81.9428 62.1273Z" fill="#FF7221"/>
</g>
<defs>
<clipPath id="clip0_79_15">
<rect width="79" height="88" fill="white" transform="translate(62.5156) rotate(45.2679)"/>
</clipPath>
</defs>
</svg>
