<svg width="277" height="287" viewBox="0 0 277 287" fill="none" xmlns="http://www.w3.org/2000/svg">
<path d="M88.6901 158.624C14.3114 25.215 277.64 -38.138 278.647 39.0939C279.655 116.326 279.923 136.891 279.923 136.891C279.923 136.891 280.459 178.02 281.383 248.854C282.307 319.688 163.069 292.033 88.6901 158.624Z" fill="#FFB15F"/>
<path d="M269.27 21.4005C269.784 16.1498 271.643 12.0653 271.569 6.4028" stroke="#FFB15F" stroke-width="3" stroke-linecap="round"/>
<ellipse cx="116.35" cy="137.402" rx="50.1687" ry="170.199" transform="rotate(141.209 116.35 137.402)" fill="#FFB15F"/>
<path d="M145.67 124.499C220.099 370.378 -68.9946 7.45863 16.6615 4.44394C102.317 1.42925 271.297 0.778426 271.297 0.778426C271.297 0.778426 166.231 110.207 244.791 107.442C323.352 104.677 71.2418 -121.38 145.67 124.499Z" fill="#FFB15F"/>
<rect x="277.587" y="47.4136" width="252" height="46" transform="rotate(179.253 277.587 47.4136)" fill="#FFB15F"/>
<path d="M274.095 8.86433C264.762 14.6313 258.74 23.2252 251.941 31.6048" stroke="#FFB15F" stroke-width="3" stroke-linecap="round"/>
</svg>
